<?xml version="1.0" encoding="UTF-8" standalone="no"?>
<!DOCTYPE svg PUBLIC "-//W3C//DTD SVG 1.1//EN" "http://www.w3.org/Graphics/SVG/1.1/DTD/svg11.dtd">
<svg width="100%" height="100%" viewBox="0 0 17965 6862" version="1.1" xmlns="http://www.w3.org/2000/svg" xmlns:xlink="http://www.w3.org/1999/xlink" xml:space="preserve" xmlns:serif="http://www.serif.com/" style="fill-rule:evenodd;clip-rule:evenodd;stroke-linejoin:round;stroke-miterlimit:2;">
    <g transform="matrix(0.75,0,0,0.75,0,0)">
        <g>
            <g transform="matrix(1,0,0,1,-1912.52,-9314.31)">
                <path d="M10001.4,10961.5C10047.6,11016.8 10115.9,11048.8 10188,11048.8C10260,11048.8 10328.4,11016.8 10374.6,10961.5C11213.9,9955.18 12477.2,9314.31 13888.9,9314.31C15303.5,9314.31 16569.1,9957.82 17408.4,10967.7C17453.2,11021.6 17519.7,11052.8 17589.8,11052.8C17659.9,11052.8 17726.4,11021.6 17771.2,10967.7C18610.5,9957.82 19876.1,9314.31 21290.7,9314.31C23815.5,9314.31 25865.3,11364.1 25865.3,13888.9C25865.3,16413.7 23815.5,18463.5 21290.7,18463.5C19874.9,18463.5 18608.5,17818.9 17769.2,16807.6C17724.9,16754.3 17659.1,16723.4 17589.8,16723.4C17520.5,16723.4 17454.7,16754.3 17410.4,16807.6C16571.1,17818.9 15304.7,18463.5 13888.9,18463.5C12480.9,18463.5 11220.6,17826 10381.3,16824.3C10333.4,16767.1 10262.6,16734.1 10188,16734.1C10113.4,16734.1 10042.6,16767.1 9994.68,16824.3C9155.33,17826 7895.05,18463.5 6487.06,18463.5C3962.28,18463.5 1912.48,16413.7 1912.48,13888.9C1912.48,11364.1 3962.28,9314.31 6487.06,9314.31C7898.79,9314.31 9162.03,9955.18 10001.4,10961.5ZM6487.06,11061.6C8047.46,11061.6 9314.31,12328.5 9314.31,13888.9C9314.31,15449.3 8047.46,16716.1 6487.06,16716.1C4926.66,16716.1 3659.81,15449.3 3659.81,13888.9C3659.81,12328.5 4926.66,11061.6 6487.06,11061.6ZM13888.9,11061.6C15449.3,11061.6 16716.1,12328.5 16716.1,13888.9C16716.1,15449.3 15449.3,16716.1 13888.9,16716.1C12328.5,16716.1 11061.6,15449.3 11061.6,13888.9C11061.6,12328.5 12328.5,11061.6 13888.9,11061.6ZM21290.7,11061.6C22851.1,11061.6 24118,12328.5 24118,13888.9C24118,15449.3 22851.1,16716.1 21290.7,16716.1C19730.3,16716.1 18463.5,15449.3 18463.5,13888.9C18463.5,12328.5 19730.3,11061.6 21290.7,11061.6Z" style="fill:rgb(88,105,115);"/>
            </g>
            <g transform="matrix(1,0,0,1,-1912.52,-9314.31)">
                <g transform="matrix(9.19693,0,0,9.19673,1898.38,1897.13)">
                    <path d="M1413.49,1449.06C1406.03,1449.17 1399.19,1447.7 1392.9,1442.14C1326.85,1383.8 1269.36,1320.7 1206.89,1258.83C1205.31,1257.26 1203.04,1256.6 1200.86,1257.07C1198.68,1257.55 1196.89,1259.09 1196.1,1261.17C1181.46,1299.48 1187.12,1344.84 1213.22,1376.63C1220.7,1385.73 1231.4,1391.28 1239.2,1401.45C1240.24,1402.8 1241.24,1404.56 1241.6,1405.71C1243.5,1411.83 1241.88,1417.07 1241.28,1419.38C1239.49,1426.23 1236.95,1430.37 1233.46,1435.3C1228.22,1442.71 1219.95,1447.56 1214.35,1449.71C1209.91,1451.42 1201.21,1453.54 1195.71,1452.05C1194.41,1451.69 1193.82,1451.49 1192.79,1450.93C1189.63,1449.2 1185.38,1445.47 1182.66,1443.1C1141.71,1407.43 1118.18,1363.86 1115.49,1303.91C1113.07,1249.9 1135.36,1194.93 1175.89,1159.15C1180.98,1154.66 1189.38,1151.11 1196.16,1151.43C1205.82,1151.89 1211.04,1154.39 1217.96,1162.25C1274.45,1226.45 1340.96,1291.4 1401.86,1352.02C1403.51,1353.67 1405.9,1354.36 1408.18,1353.85C1410.47,1353.34 1412.33,1351.7 1413.13,1349.5C1427.8,1309.22 1419.49,1255.18 1391.35,1223.94C1385.28,1217.21 1375.22,1210.16 1371.12,1206.62C1369.23,1204.99 1368.91,1204.61 1367.47,1202.57C1362.6,1195.66 1364.95,1179.89 1368.31,1172.45C1374.85,1157.97 1384.8,1152.48 1391.21,1149.2C1397.52,1145.96 1412.25,1143.31 1419.75,1146.77C1423.63,1148.57 1427.07,1152.25 1430.38,1155.07C1472.51,1190.91 1497.03,1249.48 1495.3,1303.91C1493.36,1365.11 1470.17,1411.71 1425.95,1444.93C1422.64,1447.41 1417.19,1449.01 1413.49,1449.06Z" style="fill:rgb(18,190,187);fill-rule:nonzero;"/>
                </g>
                <g transform="matrix(9.19693,0,0,9.19673,1898.38,1897.13)">
                    <path d="M605.075,1259.41C604.104,1257.48 602.263,1256.13 600.127,1255.79C597.991,1255.44 595.82,1256.15 594.292,1257.68C591.734,1260.3 588.609,1263.63 585.376,1267.45C570.729,1284.76 549.181,1312.06 534.561,1327.27C526.596,1335.56 517.578,1345.59 498.699,1345.19C476.985,1344.73 472.514,1337.69 462.905,1327.36C443.372,1306.35 422.764,1281.98 401.975,1261.33C400.369,1259.76 398.082,1259.09 395.883,1259.56C393.685,1260.03 391.867,1261.57 391.043,1263.66C374.479,1305.46 379.305,1352.3 409.429,1385.96C414.957,1392.14 424.608,1399.43 425.574,1404.02C428.301,1416.98 422.51,1434.77 410.769,1444.82C405.827,1449.05 397.621,1454.02 390.624,1454.91C382.179,1455.98 373.84,1447.38 367.705,1441.48C329.862,1405.07 308.152,1356.43 308.708,1303.91C309.288,1249.13 330.881,1196.57 372.531,1161.91C379.366,1156.22 387.195,1152.1 394.159,1152.24C398.67,1152.33 408.213,1154.38 413.055,1159.69C435.664,1184.51 479.63,1238.11 494.497,1251.59C495.877,1252.85 497.715,1253.18 498.767,1253.18C499.805,1253.18 500.87,1253.16 503.255,1251.4C519.505,1239.37 560.046,1182.75 582.08,1160.24C587.464,1154.74 592.404,1152.4 600.034,1151.4C610.009,1150.08 619.769,1156.83 627.797,1164.57C665.557,1200.96 689.342,1251.48 688.69,1303.91C688.039,1356.35 666.141,1411.78 626.212,1445.58C621.472,1449.6 616.697,1454.3 610.571,1455.32C602.744,1456.62 592.807,1452.61 585.142,1447.5C574.993,1440.74 566.98,1426.48 566.406,1415.41C566.117,1409.83 567.598,1404.82 572.545,1400.99C578.249,1396.57 584.14,1390 589.275,1384.41C617.617,1353.58 622.66,1294.39 605.075,1259.41Z" style="fill:rgb(18,190,187);fill-rule:nonzero;"/>
                </g>
                <path d="M22261.2,15388.2C22229.4,15357 22181,15350.4 22142.1,15371.9C21891.7,15510.6 21603.7,15589.6 21297.3,15589.6C20333,15589.6 19550,14806.7 19550,13842.3C19550,12877.9 20333,12095 21297.3,12095C22261.7,12095 23044.7,12877.9 23044.7,13842.3C23044.7,14149.7 22965.1,14438.6 22825.5,14689.6C22803.9,14728.8 22811,14777.6 22842.9,14808.9C22868.6,14834.1 22893.5,14858.6 22893.5,14858.6C22985.8,14934.2 23044.7,15049 23044.7,15177.5C23044.7,15404.9 22860,15589.6 22632.5,15589.6C22507,15589.6 22394.5,15533.4 22318.9,15444.7C22318.9,15444.7 22289.8,15416.2 22261.2,15388.2ZM22233.7,14196.8C22248.7,14209.2 22268.9,14213.3 22287.6,14207.8C22306.2,14202.3 22320.9,14187.8 22326.8,14169.3C22359.6,14066.1 22377.3,13956.2 22377.3,13842.3C22377.3,13246.3 21893.4,12762.4 21297.3,12762.4C20701.3,12762.4 20217.4,13246.3 20217.4,13842.3C20217.4,14438.3 20701.3,14922.2 21297.3,14922.2C21408.5,14922.2 21515.8,14905.4 21616.8,14874.1C21636.6,14868 21652.1,14852.6 21658.2,14832.9C21664.4,14813.1 21660.4,14791.6 21647.6,14775.4C21634.8,14759.2 21621.4,14739.7 21608.5,14716.7C21551.8,14615.2 21553.3,14577.8 21553,14510C21551.8,14272.6 21733.8,14099.8 21965.1,14097.9C22017.5,14097.5 22089.5,14112 22150.4,14141.9C22182.2,14157.5 22210.6,14177.7 22233.7,14196.8Z" style="fill:rgb(18,190,187);"/>
            </g>
            <g transform="matrix(0.699911,0,0,0.618034,0,3494.67)">
                <rect x="0" y="0" width="23952.8" height="9148.89" style="fill:none;"/>
            </g>
        </g>
    </g>
</svg>
