<?xml version="1.0" encoding="utf-8"?>
<!-- Generator: Adobe Illustrator 22.0.0, SVG Export Plug-In . SVG Version: 6.00 Build 0)  -->
<svg version="1.1" id="Layer_1" xmlns:serif="http://www.serif.com/"
	 xmlns="http://www.w3.org/2000/svg" xmlns:xlink="http://www.w3.org/1999/xlink" x="0px" y="0px" viewBox="0 0 2000 2000"
	 style="enable-background:new 0 0 2000 2000;" xml:space="preserve">
<style type="text/css">
	.st0{fill:#A1A1A1;}
</style>
<g transform="matrix(0.75,0,0,0.75,0,0)">
	<g transform="matrix(1.98994,0,0,1.98994,-17707.9,-24540.4)">
		<g transform="matrix(1,0,0,1,0.337354,-0.337354)">
			<path class="st0" d="M9923.9,12588.5c0.5,0,0.9,0,1.4,0l0,0l0,0c173.1,0.9,313.1,141.5,313.1,314.8c0,0.6,0,1.1,0,1.7v511.8H9873
				v-828.2h50.7l0,0H9923.9z"/>
		</g>
		<g transform="matrix(0.881677,0,0,1.99831,14063,7472.02)">
			<rect x="-5304.6" y="2560.2" class="st0" width="414.4" height="414.4"/>
		</g>
		<g transform="matrix(0.881677,0,0,1.99831,7525.1,7472.02)">
			<rect x="1558" y="2560.2" class="st0" width="414.4" height="414.4"/>
		</g>
	</g>
</g>
</svg>
