<?xml version="1.0" encoding="UTF-8" standalone="no"?>
<!DOCTYPE svg PUBLIC "-//W3C//DTD SVG 1.1//EN" "http://www.w3.org/Graphics/SVG/1.1/DTD/svg11.dtd">
<svg width="100%" height="100%" viewBox="0 0 26832 16583" version="1.1" xmlns="http://www.w3.org/2000/svg" xmlns:xlink="http://www.w3.org/1999/xlink" xml:space="preserve" xmlns:serif="http://www.serif.com/" style="fill-rule:evenodd;clip-rule:evenodd;stroke-linejoin:round;stroke-miterlimit:2;">
    <g transform="matrix(0.75,0,0,0.75,0,0)">
        <g transform="matrix(1.98994,0,0,1.98994,-17707.9,-24540.4)">
            <g transform="matrix(1,0,0,1,0.337354,-0.337354)">
                <path d="M22657.2,12332.6C22663.5,12332.6 22669.8,12332.6 22676.2,12332.6L22676.2,12332.6L22676.2,12332.6C24998.1,12344.7 26876.6,14230.6 26876.6,16555.4C26876.6,16562.8 26876.6,16570.3 26876.5,16577.7L26876.5,23443.7L21974.2,23443.7L21974.2,12332.6L22653.8,12332.6L22653.8,12332.6L22657.2,12332.6Z"/>
            </g>
            <g transform="matrix(0.881677,0,0,1.99831,14063,7472.02)">
                <rect x="1557.95" y="2432.19" width="5560.23" height="5560.23"/>
            </g>
            <g transform="matrix(0.881677,0,0,1.99831,7525.1,7472.02)">
                <rect x="1557.95" y="2432.19" width="5560.23" height="5560.23"/>
            </g>
        </g>
    </g>
</svg>
