<?xml version="1.0" encoding="UTF-8" standalone="no"?>
<!DOCTYPE svg PUBLIC "-//W3C//DTD SVG 1.1//EN" "http://www.w3.org/Graphics/SVG/1.1/DTD/svg11.dtd">
<svg width="100%" height="100%" viewBox="0 0 2327 2045" version="1.1" xmlns="http://www.w3.org/2000/svg" xmlns:xlink="http://www.w3.org/1999/xlink" xml:space="preserve" xmlns:serif="http://www.serif.com/" style="fill-rule:evenodd;clip-rule:evenodd;stroke-linecap:round;stroke-linejoin:round;stroke-miterlimit:1.5;">
    <g transform="matrix(1.92943,0,0,1.74799,-8096.11,-1998.1)">
        <g transform="matrix(0.569342,-0.3095,0.309404,0.469508,3193.96,1222.47)">
            <path d="M2168.16,1997.84C2160.39,1964.21 2136.73,1941.95 2106.84,1940.13C1898.31,1927.51 1080.01,1877.95 840.1,1863.42C824.911,1862.5 809.017,1870.78 797.513,1885.62C786.009,1900.45 780.339,1919.97 782.321,1937.91C801.837,2114.68 848.883,2540.78 866.416,2699.57C870.439,2736.01 894.038,2761.21 925.035,2762.16C1154.5,2769.18 2076.8,2797.39 2304.03,2804.34C2314.98,2804.67 2326.28,2798.05 2333.93,2786.81C2341.58,2775.58 2344.51,2761.3 2341.68,2749.05C2305.36,2591.82 2203.89,2152.54 2168.16,1997.84Z" style="fill:url(#_Linear1);"/>
        </g>
        <g transform="matrix(0.481002,-0.456991,0.33811,0.433591,3205.58,1445.82)">
            <path d="M2207.62,2004.76C2199.28,1963.31 2170.14,1933.1 2135.38,1929.87C1906.37,1908.59 1069.74,1830.83 847.122,1810.14C833.43,1808.87 819.967,1814.99 810.267,1826.89C800.567,1838.79 795.598,1855.29 796.665,1872.05C807.643,2044.6 836.851,2503.64 848.621,2688.62C851.481,2733.58 881.423,2768.77 918.227,2770.42C1175.11,2781.93 2120.67,2824.3 2332.47,2833.79C2342.48,2834.24 2352.08,2828.91 2358.4,2819.4C2364.72,2809.88 2367.03,2797.29 2364.64,2785.38C2334.09,2633.5 2242.74,2179.38 2207.62,2004.76Z"/>
            <clipPath id="_clip2">
                <path d="M2207.62,2004.76C2199.28,1963.31 2170.14,1933.1 2135.38,1929.87C1906.37,1908.59 1069.74,1830.83 847.122,1810.14C833.43,1808.87 819.967,1814.99 810.267,1826.89C800.567,1838.79 795.598,1855.29 796.665,1872.05C807.643,2044.6 836.851,2503.64 848.621,2688.62C851.481,2733.58 881.423,2768.77 918.227,2770.42C1175.11,2781.93 2120.67,2824.3 2332.47,2833.79C2342.48,2834.24 2352.08,2828.91 2358.4,2819.4C2364.72,2809.88 2367.03,2797.29 2364.64,2785.38C2334.09,2633.5 2242.74,2179.38 2207.62,2004.76Z"/>
            </clipPath>
            <g clip-path="url(#_clip2)">
                <g transform="matrix(0.00804922,0.000519211,0.000886879,0.00994082,787.347,1762.89)">
                    <g transform="matrix(1,0,0,1,0.337354,-0.337354)">
                        <path d="M22657.2,12332.6C22663.5,12332.6 22669.8,12332.6 22676.2,12332.6L22676.2,12332.6L22676.2,12332.6C24998.1,12344.7 26876.6,14230.6 26876.6,16555.4C26876.6,16562.8 26876.6,16570.3 26876.5,16577.7L26876.5,23443.7L21974.2,23443.7L21974.2,12332.6L22653.8,12332.6L22653.8,12332.6L22657.2,12332.6Z" style="fill:none;stroke:white;stroke-width:519.02px;"/>
                    </g>
                    <g transform="matrix(0.881677,0,0,1.99831,14063,7472.02)">
                        <rect x="1557.95" y="2432.19" width="5560.23" height="5560.23" style="fill:none;stroke:white;stroke-width:340.97px;"/>
                    </g>
                    <g transform="matrix(0.881677,0,0,1.99831,7525.1,7472.02)">
                        <rect x="1557.95" y="2432.19" width="5560.23" height="5560.23" style="fill:none;stroke:white;stroke-width:340.97px;"/>
                    </g>
                </g>
                <g transform="matrix(1.57541,0.0364414,0.330878,1.75595,-6000.78,-388.823)">
                    <g transform="matrix(-2.87938,0,0,3.17826,5662.96,1350.87)">
                        <rect x="263.77" y="81.531" width="23.296" height="23.296" style="fill:white;"/>
                    </g>
                    <g transform="matrix(2.87938,0,0,3.17826,4076.89,1311.31)">
                        <path d="M266.121,102.73L272.221,102.73L272.221,96.076L266.121,96.076L266.121,102.73ZM272.775,103.284L265.566,103.284L265.566,95.521L272.775,95.521L272.775,103.284Z" style="fill:rgb(1,0,2);fill-rule:nonzero;"/>
                    </g>
                    <g transform="matrix(-2.87938,0,0,3.17826,5626.38,1311.25)">
                        <rect x="267.138" y="97.484" width="3.858" height="3.858" style="fill:rgb(1,0,2);"/>
                    </g>
                    <g transform="matrix(2.87938,0,0,3.17826,4076.89,1390.33)">
                        <path d="M266.121,90.299L272.221,90.299L272.221,83.645L266.121,83.645L266.121,90.299ZM272.775,90.853L265.566,90.853L265.566,83.09L272.775,83.09L272.775,90.853Z" style="fill:rgb(1,0,2);fill-rule:nonzero;"/>
                    </g>
                    <g transform="matrix(-2.87938,0,0,3.17826,5626.38,1390.26)">
                        <rect x="267.138" y="85.054" width="3.858" height="3.858" style="fill:rgb(1,0,2);"/>
                    </g>
                    <g transform="matrix(-2.87938,0,0,3.17826,5610.52,1355.05)">
                        <rect x="265.52" y="91.73" width="1.584" height="1.584" style="fill:rgb(1,0,2);"/>
                    </g>
                    <g transform="matrix(-2.87938,0,0,3.17826,5637.87,1355.05)">
                        <rect x="270.27" y="91.73" width="1.584" height="1.584" style="fill:rgb(1,0,2);"/>
                    </g>
                    <g transform="matrix(-2.87938,0,0,3.17826,5619.64,1355.05)">
                        <rect x="267.104" y="91.73" width="1.584" height="1.584" style="fill:rgb(1,0,2);"/>
                    </g>
                    <g transform="matrix(-2.87938,0,0,3.17826,5610.52,1344.98)">
                        <rect x="265.52" y="93.314" width="1.584" height="1.584" style="fill:rgb(1,0,2);"/>
                    </g>
                    <g transform="matrix(-2.87938,0,0,3.17826,5628.76,1344.98)">
                        <rect x="268.687" y="93.314" width="1.584" height="1.584" style="fill:rgb(1,0,2);"/>
                    </g>
                    <g transform="matrix(-2.87938,0,0,3.17826,5647,1344.98)">
                        <rect x="271.855" y="93.314" width="1.583" height="1.584" style="fill:rgb(1,0,2);"/>
                    </g>
                    <g transform="matrix(-2.87938,0,0,3.17826,5688.03,1355.05)">
                        <rect x="278.98" y="91.73" width="1.584" height="1.584" style="fill:rgb(1,0,2);"/>
                    </g>
                    <g transform="matrix(-2.87938,0,0,3.17826,5678.91,1355.05)">
                        <rect x="277.396" y="91.73" width="1.584" height="1.584" style="fill:rgb(1,0,2);"/>
                    </g>
                    <g transform="matrix(-2.87938,0,0,3.17826,5660.67,1355.05)">
                        <rect x="274.229" y="91.73" width="1.584" height="1.584" style="fill:rgb(1,0,2);"/>
                    </g>
                    <g transform="matrix(-2.87938,0,0,3.17826,5651.55,1344.98)">
                        <rect x="272.646" y="93.314" width="1.583" height="1.584" style="fill:rgb(1,0,2);"/>
                    </g>
                    <g transform="matrix(-2.87938,0,0,3.17826,5669.79,1344.98)">
                        <rect x="275.813" y="93.314" width="1.583" height="1.584" style="fill:rgb(1,0,2);"/>
                    </g>
                    <g transform="matrix(-2.87938,0,0,3.17826,5715.39,1355.05)">
                        <rect x="283.731" y="91.73" width="1.584" height="1.584" style="fill:rgb(1,0,2);"/>
                    </g>
                    <g transform="matrix(-2.87938,0,0,3.17826,5697.15,1344.98)">
                        <rect x="280.564" y="93.314" width="1.583" height="1.584" style="fill:rgb(1,0,2);"/>
                    </g>
                    <g transform="matrix(-2.87938,0,0,3.17826,5688.03,1344.98)">
                        <rect x="278.98" y="93.314" width="1.584" height="1.584" style="fill:rgb(1,0,2);"/>
                    </g>
                    <g transform="matrix(-2.87938,0,0,3.17826,5669.79,1365.12)">
                        <rect x="275.813" y="90.146" width="1.583" height="1.584" style="fill:rgb(1,0,2);"/>
                    </g>
                    <g transform="matrix(-2.87938,0,0,3.17826,5678.91,1375.19)">
                        <rect x="277.396" y="88.563" width="1.584" height="1.583" style="fill:rgb(1,0,2);"/>
                    </g>
                    <g transform="matrix(-2.87938,0,0,3.17826,5660.67,1375.19)">
                        <rect x="274.229" y="88.563" width="1.584" height="1.583" style="fill:rgb(1,0,2);"/>
                    </g>
                    <g transform="matrix(-2.87938,0,0,3.17826,5678.91,1395.37)">
                        <rect x="277.396" y="85.388" width="1.584" height="1.583" style="fill:rgb(1,0,2);"/>
                    </g>
                    <g transform="matrix(-2.87938,0,0,3.17826,5715.39,1375.19)">
                        <rect x="283.731" y="88.563" width="1.584" height="1.583" style="fill:rgb(1,0,2);"/>
                    </g>
                    <g transform="matrix(-2.87938,0,0,3.17826,5660.67,1410.07)">
                        <rect x="274.229" y="83.074" width="1.584" height="1.584" style="fill:rgb(1,0,2);"/>
                    </g>
                    <g transform="matrix(-2.87938,0,0,3.17826,5678.91,1410.07)">
                        <rect x="277.396" y="83.074" width="1.584" height="1.584" style="fill:rgb(1,0,2);"/>
                    </g>
                    <g transform="matrix(-2.87938,0,0,3.17826,5715.39,1409.48)">
                        <rect x="283.731" y="83.167" width="1.584" height="1.584" style="fill:rgb(1,0,2);"/>
                    </g>
                    <g transform="matrix(-2.87938,0,0,3.17826,5706.27,1375.19)">
                        <rect x="282.147" y="88.563" width="1.584" height="1.583" style="fill:rgb(1,0,2);"/>
                    </g>
                    <g transform="matrix(-2.87938,0,0,3.17826,5706.27,1395.37)">
                        <rect x="282.147" y="85.388" width="1.584" height="1.583" style="fill:rgb(1,0,2);"/>
                    </g>
                    <g transform="matrix(-2.87938,0,0,3.17826,5697.15,1385.25)">
                        <rect x="280.564" y="86.979" width="1.583" height="1.584" style="fill:rgb(1,0,2);"/>
                    </g>
                    <g transform="matrix(-2.87938,0,0,3.17826,5697.15,1409.48)">
                        <rect x="280.564" y="83.167" width="1.583" height="1.584" style="fill:rgb(1,0,2);"/>
                    </g>
                    <g transform="matrix(-2.87938,0,0,3.17826,5697.15,1365.12)">
                        <rect x="280.564" y="90.146" width="1.583" height="1.584" style="fill:rgb(1,0,2);"/>
                    </g>
                    <g transform="matrix(-2.87938,0,0,3.17826,5688.03,1365.12)">
                        <rect x="278.98" y="90.146" width="1.584" height="1.584" style="fill:rgb(1,0,2);"/>
                    </g>
                    <g transform="matrix(2.87938,0,0,3.17826,4076.89,1291.99)">
                        <rect x="273.688" y="101.651" width="1.584" height="1.583" style="fill:rgb(1,0,2);"/>
                    </g>
                    <g transform="matrix(2.87938,0,0,3.17826,4076.89,1332.26)">
                        <rect x="273.688" y="95.316" width="1.584" height="1.584" style="fill:rgb(1,0,2);"/>
                    </g>
                    <g transform="matrix(2.87938,0,0,3.17826,4076.89,1322.19)">
                        <rect x="273.688" y="96.9" width="1.584" height="1.584" style="fill:rgb(1,0,2);"/>
                    </g>
                    <g transform="matrix(2.87938,0,0,3.17826,4076.89,1302.06)">
                        <rect x="273.688" y="100.067" width="1.584" height="1.584" style="fill:rgb(1,0,2);"/>
                    </g>
                    <g transform="matrix(2.87938,0,0,3.17826,4076.89,1291.99)">
                        <rect x="275.272" y="101.651" width="1.583" height="1.583" style="fill:rgb(1,0,2);"/>
                    </g>
                    <g transform="matrix(2.87938,0,0,3.17826,4076.89,1312.12)">
                        <rect x="275.272" y="98.484" width="1.583" height="1.584" style="fill:rgb(1,0,2);"/>
                    </g>
                    <g transform="matrix(2.87938,0,0,3.17826,4076.89,1332.26)">
                        <rect x="275.272" y="95.316" width="1.583" height="1.584" style="fill:rgb(1,0,2);"/>
                    </g>
                    <g transform="matrix(2.87938,0,0,3.17826,4076.89,1311.31)">
                        <path d="M278.621,102.73L284.721,102.73L284.721,96.076L278.621,96.076L278.621,102.73ZM285.275,103.284L278.067,103.284L278.067,95.521L285.275,95.521L285.275,103.284Z" style="fill:rgb(1,0,2);fill-rule:nonzero;"/>
                    </g>
                    <g transform="matrix(-2.87938,0,0,3.17826,5698.37,1311.25)">
                        <rect x="279.638" y="97.484" width="3.858" height="3.858" style="fill:rgb(1,0,2);"/>
                    </g>
                </g>
                <g transform="matrix(1.36171,0.0988824,0.122755,1.68219,-1591.07,-2357.86)">
                    <g transform="matrix(0.999919,0,0,1,0.12727,0)">
                        <text x="1571.26px" y="2844.44px" style="font-family:'HelveticaNeue-Thin', 'Helvetica Neue', sans-serif;font-weight:200;font-size:53.216px;fill:white;">Collen</text>
                    </g>
                    <g transform="matrix(0.999919,0,0,1,0.12727,0)">
                        <text x="1571.26px" y="2905.99px" style="font-family:'HelveticaNeue', 'Helvetica Neue';font-size:59.868px;fill:white;">Adler</text>
                    </g>
                </g>
            </g>
        </g>
    </g>
    <defs>
        <linearGradient id="_Linear1" x1="0" y1="0" x2="1" y2="0" gradientUnits="userSpaceOnUse" gradientTransform="matrix(627.999,-63.4919,-55.213,758.003,1406.19,2715.21)"><stop offset="0" style="stop-color:rgb(153,153,153);stop-opacity:1"/><stop offset="1" style="stop-color:rgb(230,230,230);stop-opacity:1"/></linearGradient>
    </defs>
</svg>
